<svg xmlns="http://www.w3.org/2000/svg" viewBox="0 0 39.7 39.7"><path d="M19.9 23.8c2.2 0 4-1.8 4-4 0-.9-.3-1.7-.8-2.3-.7-1-1.9-1.7-3.2-1.7-1.3 0-2.5.7-3.2 1.7-.5.7-.8 1.5-.8 2.3 0 2.3 1.8 4 4 4zm0 0M28.5 15v-3.8h-3.8V15h3.8zm0 0"/><path d="M19.9 0C8.9 0 0 8.9 0 19.9c0 11 8.9 19.9 19.9 19.9 11 0 19.9-8.9 19.9-19.9-.1-11-9-19.9-19.9-19.9zm11.3 17.5v9.3c0 2.4-2 4.4-4.4 4.4H12.9c-2.4 0-4.4-2-4.4-4.4V12.9c0-2.4 2-4.4 4.4-4.4h13.9c2.4 0 4.4 2 4.4 4.4v4.6zm0 0"/><path d="M26 19.9c0 3.4-2.8 6.2-6.2 6.2-3.4 0-6.2-2.8-6.2-6.2 0-.8.2-1.6.5-2.3h-3.4v9.3c0 1.2 1 2.2 2.2 2.2h13.9c1.2 0 2.2-1 2.2-2.2v-9.3h-3.4c.3.7.4 1.4.4 2.3zm0 0"/></svg>