<svg id="Layer_1" xmlns="http://www.w3.org/2000/svg" viewBox="0 0 138 138"><path class="st0" d="M69 0C30.9 0 0 30.9 0 69c0 16.8 6 32.1 15.9 44.1l20.9-17.2c4.7-3.9 6.6-10.3 4.7-16.1-2.4-7.2-.4-15.6 9.2-25.2L82 23.3c1.2-1.2 3.2-1.2 4.5 0 1.3 1.3 1.3 3.4 0 4.7l-29 29a3.32 3.32 0 0 0 0 4.7c1.3 1.3 3.4 1.3 4.7 0l29-29c1.3-1.3 3.4-1.3 4.7 0 1.3 1.3 1.3 3.4 0 4.7l-29 29a3.32 3.32 0 0 0 0 4.7c1.3 1.3 3.4 1.3 4.7 0l29-29c1.3-1.3 3.4-1.3 4.7 0 1.3 1.3 1.3 3.4 0 4.7l-29 29a3.32 3.32 0 0 0 0 4.7c1.3 1.3 3.4 1.3 4.7 0l29-29c1.3-1.3 3.4-1.3 4.7 0 1.2 1.2 1.2 3.2 0 4.5L83.4 87.3c-9.6 9.6-18 11.6-25.2 9.2-5.8-1.9-12.2 0-16.1 4.7L25 122.1c12.1 10 27.3 15.9 44 15.9 38.1 0 69-30.9 69-69S107.1 0 69 0z"/></svg>
