<?xml version="1.0" encoding="UTF-8"?><!DOCTYPE svg PUBLIC "-//W3C//DTD SVG 1.1//EN" "http://www.w3.org/Graphics/SVG/1.1/DTD/svg11.dtd"><svg xmlns="http://www.w3.org/2000/svg"><symbol id="icon-facebook" viewBox="0 0 39.7 39.7"><path d="M19.9 0C8.9 0 0 8.9 0 19.9c0 11 8.9 19.9 19.9 19.9 11 0 19.9-8.9 19.9-19.9-.1-11-9-19.9-19.9-19.9zm4.9 20.6h-3.2v11.5h-4.8V20.6h-2.3v-4.1h2.3v-2.6c0-1.9.9-4.8 4.8-4.8h3.5v4h-2.6c-.4 0-1 .2-1 1.1v2.4h3.6l-.3 4zm0 0"/></symbol><symbol id="icon-instagram" viewBox="0 0 39.7 39.7"><path d="M19.9 23.8c2.2 0 4-1.8 4-4 0-.9-.3-1.7-.8-2.3-.7-1-1.9-1.7-3.2-1.7-1.3 0-2.5.7-3.2 1.7-.5.7-.8 1.5-.8 2.3 0 2.3 1.8 4 4 4zm8.6-8.8v-3.8h-3.8V15h3.8zm0 0"/><path d="M19.9 0C8.9 0 0 8.9 0 19.9c0 11 8.9 19.9 19.9 19.9 11 0 19.9-8.9 19.9-19.9-.1-11-9-19.9-19.9-19.9zm11.3 17.5v9.3c0 2.4-2 4.4-4.4 4.4H12.9c-2.4 0-4.4-2-4.4-4.4V12.9c0-2.4 2-4.4 4.4-4.4h13.9c2.4 0 4.4 2 4.4 4.4v4.6zm0 0"/><path d="M26 19.9c0 3.4-2.8 6.2-6.2 6.2-3.4 0-6.2-2.8-6.2-6.2 0-.8.2-1.6.5-2.3h-3.4v9.3c0 1.2 1 2.2 2.2 2.2h13.9c1.2 0 2.2-1 2.2-2.2v-9.3h-3.4c.3.7.4 1.4.4 2.3zm0 0"/></symbol><symbol id="icon-twitter" viewBox="0 0 39.7 39.7"><path d="M19.9 0C8.9 0 0 8.9 0 19.9c0 11 8.9 19.9 19.9 19.9 11 0 19.9-8.9 19.9-19.9-.1-11-9-19.9-19.9-19.9zm8.8 15.3v.6c0 6-4.6 13-13 13-2.6 0-5-.8-7-2.1.4 0 .7.1 1.1.1 2.1 0 4.1-.7 5.7-2-2 0-3.7-1.4-4.3-3.2.3.1.6.1.9.1.4 0 .8-.1 1.2-.2-2.1-.4-3.7-2.3-3.7-4.5V17c.6.3 1.3.5 2.1.6-1.2-.8-2-2.2-2-3.8 0-.8.2-1.6.6-2.3 2.3 2.8 5.6 4.6 9.4 4.8-.1-.3-.1-.7-.1-1 0-2.5 2-4.6 4.6-4.6 1.3 0 2.5.6 3.3 1.4 1-.2 2-.6 2.9-1.1-.3 1.1-1.1 2-2 2.5.9-.1 1.8-.4 2.6-.7-.6 1.1-1.4 1.9-2.3 2.5zm0 0"/></symbol><symbol id="logo" viewBox="0 0 138 138"><path class="st0" d="M69 0C30.9 0 0 30.9 0 69c0 16.8 6 32.1 15.9 44.1l20.9-17.2c4.7-3.9 6.6-10.3 4.7-16.1-2.4-7.2-.4-15.6 9.2-25.2L82 23.3c1.2-1.2 3.2-1.2 4.5 0 1.3 1.3 1.3 3.4 0 4.7l-29 29a3.32 3.32 0 0 0 0 4.7c1.3 1.3 3.4 1.3 4.7 0l29-29c1.3-1.3 3.4-1.3 4.7 0 1.3 1.3 1.3 3.4 0 4.7l-29 29a3.32 3.32 0 0 0 0 4.7c1.3 1.3 3.4 1.3 4.7 0l29-29c1.3-1.3 3.4-1.3 4.7 0 1.3 1.3 1.3 3.4 0 4.7l-29 29a3.32 3.32 0 0 0 0 4.7c1.3 1.3 3.4 1.3 4.7 0l29-29c1.3-1.3 3.4-1.3 4.7 0 1.2 1.2 1.2 3.2 0 4.5L83.4 87.3c-9.6 9.6-18 11.6-25.2 9.2-5.8-1.9-12.2 0-16.1 4.7L25 122.1c12.1 10 27.3 15.9 44 15.9 38.1 0 69-30.9 69-69S107.1 0 69 0z"/></symbol></svg>