<svg xmlns="http://www.w3.org/2000/svg" viewBox="0 0 39.7 39.7"><path d="M19.9 0C8.9 0 0 8.9 0 19.9c0 11 8.9 19.9 19.9 19.9 11 0 19.9-8.9 19.9-19.9-.1-11-9-19.9-19.9-19.9zm8.8 15.3v.6c0 6-4.6 13-13 13-2.6 0-5-.8-7-2.1.4 0 .7.1 1.1.1 2.1 0 4.1-.7 5.7-2-2 0-3.7-1.4-4.3-3.2.3.1.6.1.9.1.4 0 .8-.1 1.2-.2-2.1-.4-3.7-2.3-3.7-4.5V17c.6.3 1.3.5 2.1.6-1.2-.8-2-2.2-2-3.8 0-.8.2-1.6.6-2.3 2.3 2.8 5.6 4.6 9.4 4.8-.1-.3-.1-.7-.1-1 0-2.5 2-4.6 4.6-4.6 1.3 0 2.5.6 3.3 1.4 1-.2 2-.6 2.9-1.1-.3 1.1-1.1 2-2 2.5.9-.1 1.8-.4 2.6-.7-.6 1.1-1.4 1.9-2.3 2.5zm0 0"/></svg>